<svg width="162" height="38" viewBox="0 0 162 38" fill="none" xmlns="http://www.w3.org/2000/svg">
<path d="M7.84 5.26915V4.91915H1.225V5.26915H1.47C2.45 5.26915 3.045 5.89915 3.045 6.84415V28.6491C3.045 29.6291 2.45 30.2591 1.47 30.2591H1.225V30.6091H17.745L19.215 25.4641H18.83L18.76 25.7091C17.92 28.4391 15.47 30.2591 12.635 30.2591H5.985V6.84415C5.985 5.89915 6.615 5.26915 7.56 5.26915H7.84ZM22.9824 26.7241L29.2824 9.01415L33.7624 21.7891L22.9824 26.7241ZM36.2124 28.7541C36.5274 29.6641 36.1074 30.2591 35.1624 30.2591H34.9174V30.6091H41.6724V30.2591H41.3924C40.4474 30.2591 39.6074 29.6641 39.2924 28.7541L30.8924 4.91915H30.3324L21.8274 28.8241C21.5474 29.7341 20.7074 30.3291 19.7274 30.3291H19.4824V30.6091H23.5424V30.3291H23.2974C22.3524 30.3291 21.9324 29.7341 22.2474 28.8241L22.8074 27.1791L33.9024 22.1391L36.2124 28.7541ZM56.225 19.5491L64.17 5.58415V28.6491C64.17 29.6291 63.575 30.2591 62.595 30.2591H62.35V30.6091H68.965V30.2591H68.685C67.74 30.2591 67.11 29.6291 67.11 28.6491V6.84415C67.11 5.89915 67.74 5.26915 68.685 5.26915H68.965V4.91915H64.135L55.98 19.1991L48.07 4.91915H42.89V5.26915H43.135C44.115 5.26915 44.71 5.89915 44.71 6.84415V28.6491C44.71 29.6291 44.115 30.2591 43.135 30.2591H42.89V30.6091H46.915V30.2591H46.67C45.725 30.2591 45.095 29.6291 45.095 28.6491V5.58415L54.3 22.1741L54.545 22.5241L56.225 19.5491ZM73.7051 26.7241L80.0051 9.01415L84.4851 21.7891L73.7051 26.7241ZM86.9351 28.7541C87.2501 29.6641 86.8301 30.2591 85.8851 30.2591H85.6401V30.6091H92.3951V30.2591H92.1151C91.1701 30.2591 90.3301 29.6641 90.0151 28.7541L81.6151 4.91915H81.0551L72.5501 28.8241C72.2701 29.7341 71.4301 30.3291 70.4501 30.3291H70.2051V30.6091H74.2651V30.3291H74.0201C73.0751 30.3291 72.6551 29.7341 72.9701 28.8241L73.5301 27.1791L84.6251 22.1391L86.9351 28.7541ZM113.073 30.6091V6.84415C113.073 5.89915 113.703 5.26915 114.648 5.26915H114.893V4.91915H110.868V5.26915H111.113C112.093 5.26915 112.688 5.89915 112.688 6.84415V25.6041L98.9677 4.91915H93.6127V5.26915H93.8577C94.8377 5.26915 95.4327 5.89915 95.4327 6.84415V28.6491C95.4327 29.6291 94.8377 30.2591 93.8577 30.2591H93.6127V30.6091H97.6377V30.2591H97.3927C96.4477 30.2591 95.8177 29.6291 95.8177 28.6491V5.47915L112.478 30.6091H113.073ZM133.475 12.6191H133.615V6.24915C132.32 5.26915 129.52 4.53415 126.58 4.53415C121.26 4.53415 117.55 6.98415 117.55 10.5191C117.55 17.6591 132.6 18.7091 132.6 25.5341C132.6 28.4391 129.835 30.6091 125.81 30.6091C121.19 30.6091 118.39 27.7391 117.69 22.9091H117.55V29.2791C118.88 30.2591 121.645 30.9591 124.935 30.9591C130.955 30.9591 134.735 28.4391 134.735 24.3091C134.735 16.0141 119.685 15.1741 119.685 9.46915C119.685 7.05415 122.345 4.91915 125.88 4.91915C130.01 4.91915 132.775 7.78915 133.475 12.6191ZM143.39 30.2591C142.445 30.2591 141.815 29.6291 141.815 28.6491V20.3891L153.925 15.4891V28.6491C153.925 29.6291 153.33 30.2591 152.35 30.2591H152.105V30.6091H158.72V30.2591H158.475C157.495 30.2591 156.865 29.6291 156.865 28.6491V6.84415C156.865 5.89915 157.495 5.26915 158.475 5.26915H158.72V4.91915H152.105V5.26915H152.35C153.33 5.26915 153.925 5.89915 153.925 6.84415V15.0691L141.815 20.0041V6.84415C141.815 5.89915 142.445 5.26915 143.39 5.26915H143.67V4.91915H137.055V5.26915H137.3C138.28 5.26915 138.875 5.89915 138.875 6.84415V28.6491C138.875 29.6291 138.28 30.2591 137.3 30.2591H137.055V30.6091H143.67V30.2591H143.39Z" fill="white"/>
</svg>
