<svg width="158" height="28" viewBox="0 0 158 28" fill="none" xmlns="http://www.w3.org/2000/svg">
<path d="M6.84 1.66V1.31H0.225V1.66H0.47C1.45 1.66 2.045 2.29 2.045 3.235V25.04C2.045 26.02 1.45 26.65 0.47 26.65H0.225V27H16.745L18.215 21.855H17.83L17.76 22.1C16.92 24.83 14.47 26.65 11.635 26.65H4.985V3.235C4.985 2.29 5.615 1.66 6.56 1.66H6.84ZM21.9824 23.115L28.2824 5.405L32.7624 18.18L21.9824 23.115ZM35.2124 25.145C35.5274 26.055 35.1074 26.65 34.1624 26.65H33.9174V27H40.6724V26.65H40.3924C39.4474 26.65 38.6074 26.055 38.2924 25.145L29.8924 1.31H29.3324L20.8274 25.215C20.5474 26.125 19.7074 26.72 18.7274 26.72H18.4824V27H22.5424V26.72H22.2974C21.3524 26.72 20.9324 26.125 21.2474 25.215L21.8074 23.57L32.9024 18.53L35.2124 25.145ZM55.225 15.94L63.17 1.975V25.04C63.17 26.02 62.575 26.65 61.595 26.65H61.35V27H67.965V26.65H67.685C66.74 26.65 66.11 26.02 66.11 25.04V3.235C66.11 2.29 66.74 1.66 67.685 1.66H67.965V1.31H63.135L54.98 15.59L47.07 1.31H41.89V1.66H42.135C43.115 1.66 43.71 2.29 43.71 3.235V25.04C43.71 26.02 43.115 26.65 42.135 26.65H41.89V27H45.915V26.65H45.67C44.725 26.65 44.095 26.02 44.095 25.04V1.975L53.3 18.565L53.545 18.915L55.225 15.94ZM72.7051 23.115L79.0051 5.405L83.4851 18.18L72.7051 23.115ZM85.9351 25.145C86.2501 26.055 85.8301 26.65 84.8851 26.65H84.6401V27H91.3951V26.65H91.1151C90.1701 26.65 89.3301 26.055 89.0151 25.145L80.6151 1.31H80.0551L71.5501 25.215C71.2701 26.125 70.4301 26.72 69.4501 26.72H69.2051V27H73.2651V26.72H73.0201C72.0751 26.72 71.6551 26.125 71.9701 25.215L72.5301 23.57L83.6251 18.53L85.9351 25.145ZM112.073 27V3.235C112.073 2.29 112.703 1.66 113.648 1.66H113.893V1.31H109.868V1.66H110.113C111.093 1.66 111.688 2.29 111.688 3.235V21.995L97.9677 1.31H92.6127V1.66H92.8577C93.8377 1.66 94.4327 2.29 94.4327 3.235V25.04C94.4327 26.02 93.8377 26.65 92.8577 26.65H92.6127V27H96.6377V26.65H96.3927C95.4477 26.65 94.8177 26.02 94.8177 25.04V1.87L111.478 27H112.073ZM132.475 9.01H132.615V2.64C131.32 1.66 128.52 0.924998 125.58 0.924998C120.26 0.924998 116.55 3.375 116.55 6.91C116.55 14.05 131.6 15.1 131.6 21.925C131.6 24.83 128.835 27 124.81 27C120.19 27 117.39 24.13 116.69 19.3H116.55V25.67C117.88 26.65 120.645 27.35 123.935 27.35C129.955 27.35 133.735 24.83 133.735 20.7C133.735 12.405 118.685 11.565 118.685 5.86C118.685 3.445 121.345 1.31 124.88 1.31C129.01 1.31 131.775 4.18 132.475 9.01ZM142.39 26.65C141.445 26.65 140.815 26.02 140.815 25.04V16.78L152.925 11.88V25.04C152.925 26.02 152.33 26.65 151.35 26.65H151.105V27H157.72V26.65H157.475C156.495 26.65 155.865 26.02 155.865 25.04V3.235C155.865 2.29 156.495 1.66 157.475 1.66H157.72V1.31H151.105V1.66H151.35C152.33 1.66 152.925 2.29 152.925 3.235V11.46L140.815 16.395V3.235C140.815 2.29 141.445 1.66 142.39 1.66H142.67V1.31H136.055V1.66H136.3C137.28 1.66 137.875 2.29 137.875 3.235V25.04C137.875 26.02 137.28 26.65 136.3 26.65H136.055V27H142.67V26.65H142.39Z" fill="black"/>
</svg>
